<?xml version="1.0" encoding="UTF-8" standalone="no"?>
<svg
   width="115"
   height="30"
   viewBox="0 0 115 30"
   style="shape-rendering:geometricPrecision; text-rendering:geometricPrecision; image-rendering:optimizeQuality; fill-rule:evenodd; clip-rule:evenodd"
   xml:space="preserve"
   version="1.1"
   id="svg15"
   sodipodi:docname="python-3-icon.svg"
   inkscape:version="1.1.2 (0a00cf5339, 2022-02-04)"
   xmlns:inkscape="http://www.inkscape.org/namespaces/inkscape"
   xmlns:sodipodi="http://sodipodi.sourceforge.net/DTD/sodipodi-0.dtd"
   xmlns="http://www.w3.org/2000/svg"
   xmlns:svg="http://www.w3.org/2000/svg"><sodipodi:namedview
   id="namedview17"
   pagecolor="#ffffff"
   bordercolor="#666666"
   borderopacity="1.0"
   inkscape:pageshadow="2"
   inkscape:pageopacity="0.0"
   inkscape:pagecheckerboard="0"
   showgrid="false"
   inkscape:zoom="2.3665827"
   inkscape:cx="73.312461"
   inkscape:cy="76.481588"
   inkscape:window-width="1366"
   inkscape:window-height="717"
   inkscape:window-x="0"
   inkscape:window-y="0"
   inkscape:window-maximized="1"
   inkscape:current-layer="Win10" />
	<defs
   id="defs9">
		<linearGradient
   id="Gradient1">
			<stop
   offset="0%"
   stop-color="#333333"
   stop-opacity="100"
   id="stop2" />
			<stop
   offset="100%"
   stop-color="#333333"
   stop-opacity="100"
   id="stop4" />
		</linearGradient>
		<style
   type="text/css"
   id="style7">
			<![CDATA[
				#rect1 { fill: url(#Gradient1); }
				#onversion {
					fill: #0E7FC0;
				}
				#ontext {
					font-weight: bold;
					fill: #fff;
					font-size: 13px;
					font-family: monospace;
					font-weight: normal;
					letter-spacing: 0.1em;
					text-shadow: 
						0 0 1px white,
						-1px 0 3px black,
						0 -1px 3px black;
				}
			]]>
		</style>
	</defs>
	<g
   id="system">
		<rect
   id="rect1"
   x="0"
   y="0"
   rx="3"
   ry="3"
   width="100"
   height="30" />
		<rect
   id="onversion"
   x="90"
   y="0"
   rx="3"
   ry="3"
   width="25"
   height="30" />
		<text
   x="35"
   y="18"
   id="ontext">Python 3</text>
	<g
   id="g1147"
   inkscape:label="glogo"
   transform="matrix(0.06802552,0,0,0.06802552,-1.4765611,-2.1188907)"><path
     style="display:inline;fill:#f8c63d;fill-opacity:1;stroke-width:1.06667"
     d="m 233.75246,466.23979 c -20.36124,-2.34428 -40.62706,-8.36048 -54.36353,-16.13862 -10.04409,-5.68735 -20.42155,-15.58461 -23.9515,-22.84318 l -2.59371,-5.33333 v -64 -64 l 2.99876,-6.10672 c 3.50012,-7.12765 13.0028,-17.19537 20.22561,-21.42822 11.5531,-6.77057 8.42215,-6.47635 75.97563,-7.13967 l 61.86667,-0.60747 6.94941,-2.66894 c 9.90534,-3.80417 17.68369,-9.32354 27.33909,-19.39924 9.30216,-9.7071 16.35801,-21.79162 18.39337,-31.50223 0.66998,-3.19645 1.18478,-16.28961 1.18478,-30.13333 v -24.48083 l 23.2,0.0222 c 14.92239,0.0143 25.57606,0.52015 29.85948,1.41776 20.04245,4.2 36.19948,27.96496 44.2089,65.02571 2.01476,9.32261 2.35684,14.27965 2.40618,34.86763 0.0653,27.23714 -1.17714,36.4248 -7.49909,55.45599 -7.10528,21.38929 -18.50929,37.14631 -31.62926,43.70244 l -6.48695,3.24161 h -84.09629 -84.0963 v 7.46666 7.46667 h 51.28332 51.28332 l -0.34999,25.86666 c -0.34686,25.63536 -0.37581,25.91913 -3.23826,31.73334 -8.75219,17.77741 -34.11263,32.0198 -67.51172,37.91447 -11.1442,1.96686 -40.28807,2.87518 -51.35792,1.60066 z m 84.68648,-35.82248 c 7.73705,-3.23275 12.23385,-10.15759 12.16737,-18.73718 -0.0443,-5.71447 -1.22043,-8.57844 -5.3596,-13.0507 -4.07823,-4.40641 -7.85946,-6.03811 -13.99253,-6.03811 -17.28129,0 -26.2407,19.01371 -15.16293,32.17888 5.48881,6.52309 14.68781,8.84761 22.34769,5.64711 z M 104.63725,354.46092 c 6.92643,-0.18608 17.96643,-0.18548 24.53333,0.001 6.5669,0.18684 0.89982,0.33909 -12.59352,0.33834 -13.49333,-7.5e-4 -18.866245,-0.15361 -11.93981,-0.3397 z M 140.95569,308.858 c -0.003,-5.28 0.17712,-7.57449 0.40082,-5.09885 0.2237,2.47563 0.22637,6.79563 0.006,9.6 -0.22045,2.80436 -0.40349,0.77885 -0.40673,-4.50115 z m 54.88803,-62.06198 c 0.77,-0.30813 1.68999,-0.27024 2.04445,0.0842 0.35445,0.35444 -0.27557,0.60655 -1.40001,0.56023 -1.24261,-0.0512 -1.49536,-0.30393 -0.64444,-0.64444 z m 86.33333,-1.12778 c 3.66667,-0.20829 9.66667,-0.20829 13.33334,0 3.66666,0.20829 0.66666,0.37871 -6.66667,0.37871 -7.33333,0 -10.33333,-0.17042 -6.66667,-0.37871 z M 39.327941,239.43578 c 0.05118,-1.24261 0.303937,-1.49536 0.644445,-0.64445 0.308129,0.77 0.270234,1.69 -0.08421,2.04445 -0.354445,0.35444 -0.606551,-0.27556 -0.560235,-1.4 z M 355.28212,184.058 c 0.009,-2.93333 0.21517,-4.00673 0.46034,-2.38533 0.24518,1.6214 0.23862,4.0214 -0.0145,5.33333 -0.25318,1.31194 -0.45378,-0.0146 -0.44578,-2.948 z M 216.39461,93.302463 c 0.0512,-1.24262 0.30393,-1.49536 0.64442,-0.64445 0.30814,0.76999 0.27025,1.68999 -0.0842,2.04445 -0.35445,0.35444 -0.60655,-0.27556 -0.56022,-1.4 z m -35.28423,-12.58051 c 0,-0.2215 0.84,-1.061498 1.86667,-1.866665 1.6918,-1.326795 1.72954,-1.289067 0.40273,0.402726 -1.39346,1.776799 -2.2694,2.341839 -2.2694,1.463939 z m 54.2,-41.925925 c 0.77,-0.308129 1.69,-0.270234 2.04445,0.08421 0.35444,0.354445 -0.27556,0.60655 -1.4,0.560235 -1.24261,-0.05118 -1.49536,-0.303937 -0.64445,-0.644445 z"
     id="path869"
     inkscape:label="objectdown" /><path
     style="display:inline;fill:#377ef0;fill-opacity:1;stroke-width:1.06667"
     d="M 83.726585,352.65285 C 41.643411,337.64142 25.176619,241.07385 54.704799,182.458 c 7.439169,-14.76735 18.003473,-25.83854 28.094886,-29.4429 3.09228,-1.10446 21.378675,-1.40659 87.377365,-1.44361 l 83.46666,-0.0468 v -6.93333 -6.93333 h -50.73322 -50.73323 l 0.33323,-26.93333 0.33323,-26.933337 3.06157,-5.817586 c 13.0498,-24.797267 57.85197,-41.395602 105.73842,-39.17403 24.93077,1.156602 42.22391,5.159537 60.8,14.073696 14.98912,7.192876 24.4355,15.468922 29.56298,25.900375 l 3.50368,7.127965 -0.11199,53.878117 c -0.12363,59.48382 -0.33204,61.68986 -7.10555,75.21146 -4.63412,9.25085 -17.63,21.93286 -27.04478,26.39161 l -7.33767,3.47505 -62.93333,1.13724 c -58.38294,1.05501 -63.36728,1.29048 -68.93498,3.25666 -14.17934,5.00728 -29.28639,17.59116 -35.80839,29.82768 -4.77279,8.95465 -5.63937,16.26416 -5.64857,47.64508 l -0.008,27.46667 -26.39999,-0.0468 c -19.400405,-0.0345 -27.473925,-0.4299 -30.450475,-1.49166 z M 204.24094,111.99015 c 6.37989,-2.41049 13.06452,-11.62416 13.10673,-18.065467 0.0603,-9.20316 -6.53718,-17.914326 -15.22432,-20.101772 -14.03362,-3.533705 -26.62057,7.466362 -24.99959,21.847772 1.40587,12.472817 15.24879,20.803657 27.11718,16.319467 z"
     id="path865"
     inkscape:label="upobject" /></g></g>
</svg>
